<?xml version="1.0" encoding="utf-8"?>
<!-- Generator: Adobe Illustrator 24.0.1, SVG Export Plug-In . SVG Version: 6.00 Build 0)  -->
<svg version="1.1" id="sampleUserPhoto" xmlns="http://www.w3.org/2000/svg" xmlns:xlink="http://www.w3.org/1999/xlink" x="0px"
	 y="0px" viewBox="0 0 480 480" style="enable-background:new 0 0 480 480;" xml:space="preserve">
<style type="text/css">
	.st0{fill:#D2CED0;}
	.st1{fill:#FFFFFF;}
</style>
<rect y="0" class="st0" width="480" height="480"/>
<path class="st1" d="M335.5,332.9"/>
<path class="st1" d="M332.6,309.2"/>
<path class="st1" d="M431.9,309.1"/>
<path class="st1" d="M428.9,332.8"/>
<g>
	<g>
		<path class="st1" d="M103.2,287.8c-30.2,0-54.8-24.6-54.8-54.8s24.6-54.8,54.8-54.8s54.8,24.6,54.8,54.8
			C157.9,263.3,133.4,287.8,103.2,287.8z M103.2,205.7c-15.1,0-27.4,12.3-27.4,27.4c0,15.1,12.3,27.4,27.4,27.4s27.4-12.3,27.4-27.4
			C130.6,218,118.3,205.7,103.2,205.7z"/>
	</g>
	<g>
		<path class="st1" d="M335.9,342.6h-27.4c0-37.7-30.7-68.4-68.4-68.4s-68.4,30.7-68.4,68.4h-27.4c0-52.8,43-95.8,95.8-95.8
			S335.9,289.8,335.9,342.6z"/>
	</g>
	<g>
		<path class="st1" d="M377,287.8c-30.2,0-54.8-24.6-54.8-54.8s24.6-54.8,54.8-54.8c30.2,0,54.8,24.6,54.8,54.8
			C431.7,263.3,407.2,287.8,377,287.8z M377,205.7c-15.1,0-27.4,12.3-27.4,27.4c0,15.1,12.3,27.4,27.4,27.4s27.4-12.3,27.4-27.4
			C404.4,218,392.1,205.7,377,205.7z"/>
	</g>
	<g>
		<path class="st1" d="M240.1,274.2c-37.7,0-68.4-30.7-68.4-68.4s30.7-68.4,68.4-68.4s68.4,30.7,68.4,68.4S277.8,274.2,240.1,274.2z
			 M240.1,164.7c-22.6,0-41.1,18.4-41.1,41.1s18.4,41.1,41.1,41.1s41.1-18.4,41.1-41.1S262.7,164.7,240.1,164.7z"/>
	</g>
	<g>
		<path class="st1" d="M335.9,342.6h-27.4v-13.7c0-37.7,30.7-68.4,68.4-68.4s68.4,30.7,68.4,68.4h-27.4c0-22.6-18.4-41.1-41.1-41.1
			s-41.1,18.4-41.1,41.1v13.7H335.9z"/>
	</g>
	<g>
		<path class="st1" d="M171.7,342.6h-27.4v-13.7c0-22.6-18.4-41.1-41.1-41.1s-41.1,18.4-41.1,41.1H34.8c0-37.7,30.7-68.4,68.4-68.4
			s68.4,30.7,68.4,68.4v13.7H171.7z"/>
	</g>
</g>
</svg>
